<svg xmlns="http://www.w3.org/2000/svg" width="1200" height="520" viewBox="0 0 1200 520" role="img" aria-labelledby="title desc">
  <title id="title">Florabella Logo</title>
  <desc id="desc">Florabella wordmark with butterfly mark and tagline.</desc>
  <rect width="1200" height="520" fill="#fdfbf8"/>
  <g fill="none" stroke="#f19195" stroke-linecap="round">
    <path d="M802 80c88 8 142 58 140 128-2 78-68 130-170 130" stroke-width="16"/>
    <path d="M802 80c-64 26-108 84-108 144 0 60 46 104 116 116" stroke-width="16"/>
    <path d="M872 156c74-14 144 12 186 62 42 50 44 112 10 162" stroke-width="14"/>
    <path d="M864 204c-38 22-62 62-62 104 0 42 24 80 62 102" stroke-width="14"/>
    <path d="M735 229c-40 10-68 32-88 70" stroke-width="14"/>
    <path d="M730 270c-26 4-48 16-68 38" stroke-width="12"/>
  </g>
  <text x="120" y="300" fill="#0f335b" font-family="Georgia, 'Times New Roman', serif" font-size="170" font-weight="700" letter-spacing="1">
    Florabella
  </text>
  <text x="192" y="398" fill="#0f335b" font-family="'Trebuchet MS', Arial, sans-serif" font-size="58" font-weight="700" letter-spacing="9">
    BOSTON SIGNATURE FLORAL STUDIO
  </text>
</svg>
