<svg xmlns="http://www.w3.org/2000/svg" width="1400" height="520" viewBox="0 0 1400 520" role="img" aria-labelledby="title desc">
  <title id="title">Florabella Butterfly Logo</title>
  <desc id="desc">Florabella wordmark with large butterfly mark positioned above the right side of the name.</desc>
  <g fill="none" stroke="#f19195" stroke-linecap="round" stroke-linejoin="round">
    <path d="M1008 34c94 10 154 66 152 142-2 88-72 146-188 146" stroke-width="16"/>
    <path d="M1008 34c-68 28-114 92-114 164 0 70 50 120 126 134" stroke-width="16"/>
    <path d="M1088 130c88-18 170 14 220 76 50 60 54 136 12 198" stroke-width="15"/>
    <path d="M1078 190c-44 24-72 70-72 118 0 48 28 92 72 118" stroke-width="15"/>
    <path d="M928 214c-46 12-80 38-102 88" stroke-width="15"/>
    <path d="M920 270c-28 6-54 20-78 48" stroke-width="13"/>
  </g>
  <text x="56" y="398" fill="#123861" font-family="'Palatino Linotype', 'Book Antiqua', Georgia, serif" font-size="250" font-style="italic" font-weight="700" letter-spacing="-5">
    Florabella
  </text>
</svg>
